<?xml version="1.0" encoding="UTF-8"?>
<svg xmlns="http://www.w3.org/2000/svg" xmlns:xlink="http://www.w3.org/1999/xlink" viewBox="0 0 100 100" width="100px" height="100px">
<g id="surface23168887">
<path style=" stroke:none;fill-rule:nonzero;fill:rgb(40.000001%,40.000001%,40.000001%);fill-opacity:1;" d="M 49.996094 8.996094 C 41.972656 8.996094 35.445312 15.527344 35.445312 23.554688 C 35.445312 27.757812 37.296875 31.488281 40.15625 34.140625 C 38.175781 35.570312 36.417969 37.042969 34.449219 38.363281 C 34.148438 38.566406 33.980469 38.90625 34.007812 39.265625 C 34.070312 40.160156 34.242188 41.351562 34.703125 42.683594 C 35.113281 43.886719 35.632812 44.84375 36.089844 45.550781 C 36.273438 45.839844 36.589844 46.015625 36.933594 46.015625 L 41.066406 46.007812 C 41.046875 46.273438 41.03125 46.546875 41.003906 46.832031 C 41.003906 46.84375 41.003906 46.851562 41.003906 46.863281 C 40.019531 57.828125 36.410156 61.53125 32.476562 64.703125 C 28.539062 67.882812 24.03125 70.582031 22.484375 78.542969 L 22.480469 78.566406 C 22.476562 78.570312 22.476562 78.570312 22.480469 78.574219 C 22.40625 78.945312 22.339844 79.328125 22.28125 79.722656 C 22.28125 79.726562 22.28125 79.726562 22.28125 79.730469 C 22.277344 79.730469 22.277344 79.757812 22.269531 79.8125 C 22.152344 80.609375 22.058594 81.449219 21.996094 82.34375 C 21.988281 82.464844 21.980469 82.574219 21.976562 82.671875 C 21.953125 83.015625 21.933594 83.359375 21.921875 83.710938 C 21.917969 83.835938 21.914062 83.960938 21.910156 84.089844 C 21.910156 84.09375 21.910156 84.09375 21.910156 84.09375 C 21.894531 84.554688 21.886719 85.027344 21.886719 85.519531 C 21.886719 85.597656 21.894531 85.675781 21.914062 85.75 C 21.914062 85.75 22.003906 86.042969 22.144531 86.257812 C 22.285156 86.476562 22.496094 86.722656 22.820312 86.988281 C 23.460938 87.523438 24.523438 88.128906 26.367188 88.714844 C 30.058594 89.890625 36.914062 91.003906 50 91.003906 C 63.082031 91.003906 69.9375 89.890625 73.628906 88.714844 C 75.472656 88.128906 76.535156 87.523438 77.175781 86.988281 C 77.496094 86.722656 77.710938 86.476562 77.851562 86.257812 C 77.992188 86.042969 78.085938 85.75 78.085938 85.75 C 78.101562 85.675781 78.109375 85.597656 78.109375 85.519531 C 78.109375 79.238281 76.96875 75.152344 75.167969 72.183594 C 73.363281 69.21875 70.957031 67.441406 68.652344 65.664062 C 66.34375 63.890625 64.125 62.117188 62.351562 59.109375 C 60.683594 56.289062 59.457031 52.148438 59 46.015625 L 63.082031 46.023438 C 63.421875 46.023438 63.738281 45.851562 63.925781 45.5625 C 64.414062 44.792969 64.90625 43.710938 65.3125 42.539062 C 65.769531 41.203125 65.941406 40.015625 66.007812 39.121094 C 66.03125 38.761719 65.863281 38.417969 65.566406 38.21875 C 63.601562 36.898438 61.855469 35.546875 59.925781 34.183594 C 60 34.113281 60.089844 34.039062 60.210938 33.921875 L 60.214844 33.917969 C 60.566406 33.566406 60.914062 33.199219 61.238281 32.804688 L 61.242188 32.800781 C 61.328125 32.695312 61.355469 32.652344 61.320312 32.695312 C 61.324219 32.691406 61.328125 32.6875 61.332031 32.683594 C 61.617188 32.324219 61.886719 31.957031 62.140625 31.574219 C 62.140625 31.574219 62.140625 31.574219 62.144531 31.574219 C 62.257812 31.398438 62.339844 31.25 62.40625 31.136719 L 62.410156 31.136719 C 62.578125 30.855469 62.753906 30.5625 62.917969 30.246094 C 63.015625 30.058594 63.097656 29.878906 63.171875 29.71875 C 63.304688 29.433594 63.433594 29.136719 63.554688 28.832031 L 63.554688 28.828125 C 63.625 28.644531 63.695312 28.453125 63.761719 28.257812 L 63.765625 28.253906 C 63.871094 27.941406 63.960938 27.628906 64.042969 27.320312 C 64.089844 27.152344 64.144531 26.960938 64.195312 26.742188 C 64.273438 26.382812 64.332031 26.03125 64.382812 25.6875 L 64.382812 25.683594 C 64.402344 25.554688 64.433594 25.386719 64.460938 25.171875 C 64.515625 24.648438 64.554688 24.109375 64.554688 23.554688 C 64.554688 22.96875 64.507812 22.398438 64.445312 21.851562 C 64.445312 21.851562 64.445312 21.851562 64.445312 21.847656 C 64.421875 21.640625 64.386719 21.472656 64.367188 21.339844 C 64.367188 21.339844 64.367188 21.339844 64.367188 21.335938 C 64.308594 20.953125 64.234375 20.566406 64.144531 20.179688 C 64.101562 19.996094 64.054688 19.816406 64.003906 19.636719 L 64.007812 19.636719 C 63.898438 19.25 63.773438 18.875 63.636719 18.503906 C 63.636719 18.503906 63.636719 18.503906 63.636719 18.5 C 63.597656 18.398438 63.550781 18.253906 63.476562 18.070312 C 63.273438 17.570312 63.042969 17.074219 62.777344 16.585938 C 62.777344 16.582031 62.773438 16.578125 62.773438 16.574219 C 62.507812 16.09375 62.21875 15.640625 61.914062 15.210938 C 61.914062 15.210938 61.914062 15.210938 61.914062 15.207031 C 61.816406 15.070312 61.726562 14.960938 61.660156 14.867188 C 61.417969 14.542969 61.160156 14.226562 60.890625 13.921875 C 60.890625 13.921875 60.890625 13.921875 60.890625 13.917969 C 60.789062 13.808594 60.691406 13.695312 60.582031 13.578125 C 60.582031 13.578125 60.578125 13.578125 60.578125 13.578125 C 60.28125 13.261719 59.972656 12.964844 59.652344 12.679688 C 59.601562 12.636719 59.523438 12.558594 59.40625 12.457031 C 56.867188 10.304688 53.582031 8.996094 50 8.996094 Z M 49.996094 10.996094 C 52.953125 10.996094 55.652344 12.027344 57.796875 13.734375 C 58.75 15.550781 59.300781 17.605469 59.300781 19.800781 C 59.300781 22.53125 58.464844 25.0625 57.03125 27.160156 C 56.929688 27.304688 56.914062 27.496094 56.992188 27.65625 C 57.070312 27.816406 57.226562 27.925781 57.40625 27.9375 C 57.585938 27.953125 57.757812 27.871094 57.855469 27.722656 C 59.398438 25.46875 60.300781 22.738281 60.300781 19.800781 C 60.300781 18.191406 59.941406 16.691406 59.410156 15.269531 C 59.632812 15.523438 59.851562 15.789062 60.054688 16.066406 C 60.148438 16.183594 60.222656 16.28125 60.277344 16.363281 C 60.546875 16.746094 60.796875 17.132812 61.015625 17.53125 C 61.015625 17.53125 61.015625 17.535156 61.015625 17.535156 C 61.019531 17.539062 61.019531 17.542969 61.023438 17.546875 C 61.246094 17.953125 61.441406 18.378906 61.625 18.828125 C 61.65625 18.910156 61.699219 19.035156 61.761719 19.199219 C 61.878906 19.523438 61.988281 19.847656 62.078125 20.175781 C 62.078125 20.175781 62.078125 20.175781 62.082031 20.179688 C 62.125 20.332031 62.164062 20.484375 62.199219 20.640625 C 62.199219 20.640625 62.199219 20.640625 62.199219 20.644531 C 62.277344 20.964844 62.335938 21.296875 62.390625 21.640625 C 62.417969 21.824219 62.445312 21.96875 62.460938 22.085938 C 62.515625 22.578125 62.554688 23.066406 62.554688 23.554688 C 62.554688 24.023438 62.523438 24.484375 62.472656 24.953125 C 62.457031 25.058594 62.429688 25.203125 62.402344 25.394531 C 62.355469 25.714844 62.304688 26.019531 62.242188 26.308594 L 62.242188 26.304688 C 62.207031 26.453125 62.160156 26.617188 62.113281 26.804688 C 62.035156 27.085938 61.957031 27.355469 61.871094 27.613281 C 61.8125 27.777344 61.753906 27.941406 61.691406 28.105469 C 61.691406 28.105469 61.691406 28.105469 61.691406 28.109375 C 61.589844 28.363281 61.480469 28.613281 61.363281 28.871094 C 61.28125 29.042969 61.210938 29.195312 61.140625 29.328125 C 61.011719 29.578125 60.859375 29.832031 60.703125 30.09375 C 60.699219 30.09375 60.699219 30.09375 60.699219 30.097656 C 60.601562 30.253906 60.53125 30.382812 60.472656 30.472656 C 60.253906 30.800781 60.019531 31.117188 59.773438 31.425781 C 59.703125 31.511719 59.667969 31.5625 59.699219 31.527344 C 59.699219 31.527344 59.699219 31.527344 59.699219 31.53125 C 59.421875 31.863281 59.121094 32.1875 58.808594 32.496094 C 58.804688 32.496094 58.804688 32.496094 58.804688 32.5 C 58.746094 32.554688 58.644531 32.640625 58.507812 32.769531 C 58.273438 32.984375 58.050781 33.183594 57.824219 33.367188 C 57.714844 33.449219 57.664062 33.496094 57.703125 33.46875 C 57.449219 33.664062 57.304688 33.972656 57.316406 34.292969 C 57.324219 34.613281 57.492188 34.910156 57.757812 35.089844 C 59.898438 36.527344 61.746094 37.996094 63.90625 39.488281 C 63.832031 40.1875 63.742188 40.953125 63.421875 41.890625 C 63.125 42.75 62.765625 43.453125 62.449219 44.023438 L 58.191406 44.015625 C 58.125 44.003906 58.0625 44 58 44 L 54.6875 44 L 56.285156 39.203125 C 56.335938 39.046875 56.308594 38.875 56.210938 38.746094 L 51.695312 32.761719 C 51.6875 32.730469 51.671875 32.703125 51.660156 32.675781 C 52.941406 32.132812 54.175781 31.488281 55.230469 30.613281 C 55.367188 30.5 55.433594 30.320312 55.402344 30.144531 C 55.371094 29.964844 55.25 29.820312 55.082031 29.757812 C 54.914062 29.695312 54.726562 29.730469 54.589844 29.84375 C 53.457031 30.785156 52.164062 31.539062 50.757812 32.058594 C 50.609375 32.109375 50.496094 32.230469 50.453125 32.382812 C 50.40625 32.535156 50.433594 32.699219 50.527344 32.824219 L 50.714844 33.078125 C 50.734375 33.128906 50.757812 33.179688 50.792969 33.222656 L 55.253906 39.136719 L 53.632812 44 L 42 44 C 41.957031 44 41.914062 44.003906 41.867188 44.007812 L 37.550781 44.015625 C 37.222656 43.460938 36.875 42.863281 36.589844 42.035156 C 36.269531 41.09375 36.179688 40.324219 36.105469 39.625 C 38.285156 38.097656 40.128906 36.507812 42.25 35.082031 C 42.515625 34.902344 42.683594 34.605469 42.691406 34.285156 C 42.703125 33.964844 42.558594 33.65625 42.304688 33.460938 C 39.347656 31.160156 37.441406 27.59375 37.441406 23.554688 C 37.441406 16.609375 43.050781 11 49.996094 11 Z M 48.554688 12.535156 C 47.324219 12.539062 45.898438 13.019531 44.492188 13.941406 C 43.089844 14.859375 41.964844 16.054688 41.261719 17.285156 C 40.558594 18.511719 40.253906 19.792969 40.671875 20.878906 C 41.089844 21.960938 42.191406 22.503906 43.421875 22.5 C 44.65625 22.496094 46.078125 22.015625 47.480469 21.097656 C 48.886719 20.175781 50.011719 18.980469 50.714844 17.753906 C 51.417969 16.523438 51.722656 15.238281 51.304688 14.15625 C 50.886719 13.074219 49.785156 12.527344 48.554688 12.535156 Z M 48.554688 13.535156 C 49.523438 13.53125 50.117188 13.855469 50.371094 14.519531 C 50.628906 15.179688 50.460938 16.1875 49.847656 17.253906 C 49.234375 18.320312 48.210938 19.425781 46.933594 20.261719 C 45.660156 21.09375 44.386719 21.496094 43.421875 21.5 C 42.453125 21.503906 41.859375 21.179688 41.605469 20.515625 C 41.347656 19.855469 41.515625 18.847656 42.128906 17.777344 C 42.742188 16.710938 43.769531 15.609375 45.042969 14.773438 C 46.316406 13.941406 47.589844 13.535156 48.558594 13.535156 Z M 43.074219 46 L 56.984375 46 C 57.074219 47.28125 57.210938 48.460938 57.367188 49.59375 C 57.601562 54.066406 58.535156 57.304688 59.910156 59.792969 C 61.710938 63.058594 64.238281 65.011719 66.730469 66.816406 C 67.625 67.460938 68.5 68.101562 69.359375 68.769531 C 70.917969 70.035156 72.332031 71.371094 73.457031 73.226562 C 75.003906 75.773438 76.046875 79.40625 76.085938 85.261719 C 76.042969 85.3125 76.023438 85.351562 75.898438 85.453125 C 75.527344 85.761719 74.695312 86.277344 73.023438 86.8125 C 69.671875 87.878906 62.96875 89.007812 50 89.007812 C 37.027344 89.007812 30.324219 87.878906 26.976562 86.8125 C 25.300781 86.277344 24.46875 85.761719 24.097656 85.453125 C 23.960938 85.339844 23.929688 85.289062 23.890625 85.242188 C 23.894531 84.875 23.898438 84.507812 23.910156 84.15625 L 23.910156 84.152344 C 23.910156 84.03125 23.917969 83.910156 23.921875 83.789062 C 23.921875 83.785156 23.921875 83.785156 23.921875 83.785156 C 23.933594 83.449219 23.949219 83.121094 23.972656 82.804688 L 23.972656 82.800781 C 23.976562 82.6875 23.984375 82.585938 23.992188 82.492188 C 23.992188 82.492188 23.992188 82.488281 23.992188 82.488281 C 24.050781 81.636719 24.136719 80.84375 24.246094 80.101562 C 24.246094 80.097656 24.246094 80.097656 24.246094 80.097656 C 24.246094 80.09375 24.253906 80.066406 24.261719 80.011719 L 24.261719 80.019531 C 24.3125 79.65625 24.375 79.300781 24.441406 78.960938 L 24.441406 78.953125 L 24.449219 78.929688 C 24.449219 78.929688 24.449219 78.925781 24.449219 78.925781 C 24.625 78.011719 24.839844 77.183594 25.085938 76.425781 C 26.515625 76.957031 32.628906 79.046875 40.367188 78.273438 C 43.976562 77.914062 46.710938 75.3125 48.707031 71.988281 C 48.800781 71.835938 48.800781 71.644531 48.714844 71.488281 C 48.628906 71.332031 48.464844 71.234375 48.289062 71.230469 C 48.109375 71.226562 47.941406 71.320312 47.851562 71.472656 C 45.941406 74.648438 43.453125 76.957031 40.269531 77.277344 C 33.316406 77.972656 27.410156 76.207031 25.410156 75.519531 C 27.210938 70.832031 30.359375 68.984375 33.734375 66.261719 C 37.636719 63.109375 41.601562 58.808594 42.835938 48.496094 C 44.636719 48.640625 46.9375 48.75 48.890625 49.40625 C 49.976562 49.769531 50.917969 50.292969 51.582031 51.050781 C 52.242188 51.804688 52.65625 52.796875 52.65625 54.214844 C 52.65625 55.097656 52.554688 56.378906 52.332031 57.882812 C 52.296875 58.0625 52.363281 58.25 52.503906 58.367188 C 52.648438 58.484375 52.84375 58.511719 53.015625 58.441406 C 53.1875 58.371094 53.304688 58.210938 53.320312 58.027344 C 53.546875 56.488281 53.65625 55.171875 53.65625 54.210938 C 53.65625 52.59375 53.152344 51.324219 52.332031 50.390625 C 51.511719 49.457031 50.402344 48.855469 49.207031 48.453125 C 47.070312 47.738281 44.703125 47.632812 42.949219 47.496094 C 42.964844 47.332031 42.984375 47.179688 43 47.011719 C 43.003906 46.980469 43.003906 46.945312 43.003906 46.914062 C 43.003906 46.910156 43.003906 46.910156 43.003906 46.910156 C 43.03125 46.605469 43.050781 46.292969 43.074219 46 Z M 51.957031 61.898438 C 51.941406 61.898438 51.921875 61.902344 51.902344 61.902344 C 51.6875 61.917969 51.503906 62.074219 51.453125 62.289062 C 51.085938 63.753906 50.628906 65.269531 50.074219 66.757812 C 49.980469 67.015625 50.109375 67.304688 50.371094 67.398438 C 50.628906 67.496094 50.917969 67.363281 51.011719 67.105469 C 51.582031 65.582031 52.050781 64.027344 52.421875 62.53125 C 52.464844 62.382812 52.433594 62.226562 52.34375 62.101562 C 52.253906 61.980469 52.113281 61.90625 51.957031 61.898438 Z M 51.957031 61.898438 "/>
</g>
</svg>
